<svg xmlns="http://www.w3.org/2000/svg" xmlns:xlink="http://www.w3.org/1999/xlink" contentStyleType="text/css" data-diagram-type="CLASS" height="263px" preserveAspectRatio="none" style="width:401px;height:263px;background:#FFFFFF;" version="1.1" viewBox="0 0 401 263" width="401px" zoomAndPan="magnify"><?plantuml 1.2026.3beta6?><defs/><g><!--class CoinFlip--><g class="entity" data-qualified-name="CoinFlip" data-source-line="1" id="ent0002"><rect fill="#F1F1F1" height="243.5625" rx="2.5" ry="2.5" style="stroke:#181818;stroke-width:0.5;" width="381.373" x="7" y="7"/><ellipse cx="165.5254" cy="23" fill="#ADD1B2" rx="11" ry="11" style="stroke:#181818;stroke-width:1;"/><path d="M168.4941,28.6406 Q167.916,28.9375 167.2754,29.0781 Q166.6348,29.2344 165.9316,29.2344 Q163.4316,29.2344 162.1035,27.5938 Q160.791,25.9375 160.791,22.8125 Q160.791,19.6875 162.1035,18.0313 Q163.4316,16.375 165.9316,16.375 Q166.6348,16.375 167.2754,16.5313 Q167.9316,16.6875 168.4941,16.9844 L168.4941,19.7031 Q167.8691,19.125 167.2754,18.8594 Q166.6816,18.5781 166.0566,18.5781 Q164.7129,18.5781 164.0254,19.6563 Q163.3379,20.7188 163.3379,22.8125 Q163.3379,24.9063 164.0254,25.9844 Q164.7129,27.0469 166.0566,27.0469 Q166.6816,27.0469 167.2754,26.7813 Q167.8691,26.5 168.4941,25.9219 L168.4941,28.6406 Z " fill="#000000"/><text fill="#000000" font-family="sans-serif" font-size="14" lengthAdjust="spacing" textLength="55.8223" x="186.0254" y="27.8467">CoinFlip</text><line style="stroke:#181818;stroke-width:0.5;" x1="8" x2="387.373" y1="39" y2="39"/><g data-visibility-modifier="PRIVATE_FIELD"><rect fill="none" height="6" style="stroke:#C82930;stroke-width:1;" width="6" x="15" y="49.6484"/></g><text fill="#000000" font-family="sans-serif" font-size="14" lengthAdjust="spacing" textLength="97.4736" x="27" y="55.9951">userScore: int</text><g data-visibility-modifier="PRIVATE_FIELD"><rect fill="none" height="6" style="stroke:#C82930;stroke-width:1;" width="6" x="15" y="65.9453"/></g><text fill="#000000" font-family="sans-serif" font-size="14" lengthAdjust="spacing" textLength="105.7246" x="27" y="72.292">compScore: int</text><g data-visibility-modifier="PRIVATE_FIELD"><rect fill="none" height="6" style="stroke:#C82930;stroke-width:1;" width="6" x="15" y="82.2422"/></g><text fill="#000000" font-family="sans-serif" font-size="14" lengthAdjust="spacing" textLength="120.9346" x="27" y="88.5889">winThreshold: int</text><line style="stroke:#181818;stroke-width:0.5;" x1="8" x2="387.373" y1="95.8906" y2="95.8906"/><g data-visibility-modifier="PUBLIC_METHOD"><ellipse cx="18" cy="109.5391" fill="#84BE84" rx="3" ry="3" style="stroke:#038048;stroke-width:1;"/></g><text fill="#000000" font-family="sans-serif" font-size="14" lengthAdjust="spacing" textLength="147.3828" x="27" y="112.8857">playGame(): boolean</text><g data-visibility-modifier="PRIVATE_METHOD"><rect fill="#F24D5C" height="6" style="stroke:#C82930;stroke-width:1;" width="6" x="15" y="122.8359"/></g><text fill="#000000" font-family="sans-serif" font-size="14" lengthAdjust="spacing" textLength="173.1953" x="27" y="129.1826">getBestOutOfValue(): int</text><g data-visibility-modifier="PRIVATE_METHOD"><rect fill="#F24D5C" height="6" style="stroke:#C82930;stroke-width:1;" width="6" x="15" y="139.1328"/></g><text fill="#000000" font-family="sans-serif" font-size="14" lengthAdjust="spacing" textLength="307.9658" x="27" y="145.4795">calculateWinThreshold(bestOutOf: int): void</text><g data-visibility-modifier="PRIVATE_METHOD"><rect fill="#F24D5C" height="6" style="stroke:#C82930;stroke-width:1;" width="6" x="15" y="155.4297"/></g><text fill="#000000" font-family="sans-serif" font-size="14" lengthAdjust="spacing" textLength="143.6846" x="27" y="161.7764">getPlayerCall(): char</text><g data-visibility-modifier="PRIVATE_METHOD"><rect fill="#F24D5C" height="6" style="stroke:#C82930;stroke-width:1;" width="6" x="15" y="171.7266"/></g><text fill="#000000" font-family="sans-serif" font-size="14" lengthAdjust="spacing" textLength="103.6943" x="27" y="178.0732">flipCoin(): char</text><g data-visibility-modifier="PRIVATE_METHOD"><rect fill="#F24D5C" height="6" style="stroke:#C82930;stroke-width:1;" width="6" x="15" y="188.0234"/></g><text fill="#000000" font-family="sans-serif" font-size="14" lengthAdjust="spacing" textLength="338.4951" x="27" y="194.3701">checkRoundWinner(call: char, result: char): void</text><g data-visibility-modifier="PRIVATE_METHOD"><rect fill="#F24D5C" height="6" style="stroke:#C82930;stroke-width:1;" width="6" x="15" y="204.3203"/></g><text fill="#000000" font-family="sans-serif" font-size="14" lengthAdjust="spacing" textLength="355.373" x="27" y="210.667">updateRoundScore(userWonRound: boolean): void</text><g data-visibility-modifier="PRIVATE_METHOD"><rect fill="#F24D5C" height="6" style="stroke:#C82930;stroke-width:1;" width="6" x="15" y="220.6172"/></g><text fill="#000000" font-family="sans-serif" font-size="14" lengthAdjust="spacing" textLength="208.5781" x="27" y="226.9639">checkGameWinner(): boolean</text><g data-visibility-modifier="PRIVATE_METHOD"><rect fill="#F24D5C" height="6" style="stroke:#C82930;stroke-width:1;" width="6" x="15" y="236.9141"/></g><text fill="#000000" font-family="sans-serif" font-size="14" lengthAdjust="spacing" textLength="193.2793" x="27" y="243.2607">declareGameWinner(): void</text></g><?plantuml-src NL3BhW514DtxYbgEu0SiILWIzuPrwIwcetHD-a54_BkUOcH8UjEdpgDE6SOOOIxEBzWrS1y0J2172dz60at1-QIGaNFp0rsT_wy3nLhOTcXv8sWORqiyKpMSmbw42RqAZfHc5DCgfzLXYvoLy0b0DfanqQvdM-qxlX8B_IBETcRhaaDXZiojaQanwEHGYhI5la1Japbj97jR_3s5gkJnQpw6afOvlNxzZDpOif2gj7lL7cOdNf5Fjxv2OzhkxvIV2rWoZ86-2If-F040?></g></svg>