<svg xmlns="http://www.w3.org/2000/svg" xmlns:xlink="http://www.w3.org/1999/xlink" contentStyleType="text/css" data-diagram-type="CLASS" height="312px" preserveAspectRatio="none" style="width:401px;height:312px;background:#FFFFFF;" version="1.1" viewBox="0 0 401 312" width="401px" zoomAndPan="magnify"><?plantuml 1.2026.3beta6?><defs/><g><!--class EvenAndOdd--><g class="entity" data-qualified-name="EvenAndOdd" data-source-line="1" id="ent0002"><rect fill="#F1F1F1" height="292.4531" rx="2.5" ry="2.5" style="stroke:#181818;stroke-width:0.5;" width="381.373" x="7" y="7"/><ellipse cx="148.063" cy="23" fill="#ADD1B2" rx="11" ry="11" style="stroke:#181818;stroke-width:1;"/><path d="M151.0317,28.6406 Q150.4536,28.9375 149.813,29.0781 Q149.1724,29.2344 148.4692,29.2344 Q145.9692,29.2344 144.6411,27.5938 Q143.3286,25.9375 143.3286,22.8125 Q143.3286,19.6875 144.6411,18.0313 Q145.9692,16.375 148.4692,16.375 Q149.1724,16.375 149.813,16.5313 Q150.4692,16.6875 151.0317,16.9844 L151.0317,19.7031 Q150.4067,19.125 149.813,18.8594 Q149.2192,18.5781 148.5942,18.5781 Q147.2505,18.5781 146.563,19.6563 Q145.8755,20.7188 145.8755,22.8125 Q145.8755,24.9063 146.563,25.9844 Q147.2505,27.0469 148.5942,27.0469 Q149.2192,27.0469 149.813,26.7813 Q150.4067,26.5 151.0317,25.9219 L151.0317,28.6406 Z " fill="#000000"/><text fill="#000000" font-family="sans-serif" font-size="14" lengthAdjust="spacing" textLength="90.7471" x="168.563" y="27.8467">EvenAndOdd</text><line style="stroke:#181818;stroke-width:0.5;" x1="8" x2="387.373" y1="39" y2="39"/><g data-visibility-modifier="PRIVATE_FIELD"><rect fill="none" height="6" style="stroke:#C82930;stroke-width:1;" width="6" x="15" y="49.6484"/></g><text fill="#000000" font-family="sans-serif" font-size="14" lengthAdjust="spacing" textLength="97.4736" x="27" y="55.9951">userScore: int</text><g data-visibility-modifier="PRIVATE_FIELD"><rect fill="none" height="6" style="stroke:#C82930;stroke-width:1;" width="6" x="15" y="65.9453"/></g><text fill="#000000" font-family="sans-serif" font-size="14" lengthAdjust="spacing" textLength="105.7246" x="27" y="72.292">compScore: int</text><g data-visibility-modifier="PRIVATE_FIELD"><rect fill="none" height="6" style="stroke:#C82930;stroke-width:1;" width="6" x="15" y="82.2422"/></g><text fill="#000000" font-family="sans-serif" font-size="14" lengthAdjust="spacing" textLength="120.9346" x="27" y="88.5889">winThreshold: int</text><g data-visibility-modifier="PRIVATE_FIELD"><rect fill="none" height="6" style="stroke:#C82930;stroke-width:1;" width="6" x="15" y="98.5391"/></g><text fill="#000000" font-family="sans-serif" font-size="14" lengthAdjust="spacing" textLength="141.7158" x="27" y="104.8857">userIsEven: boolean</text><line style="stroke:#181818;stroke-width:0.5;" x1="8" x2="387.373" y1="112.1875" y2="112.1875"/><g data-visibility-modifier="PUBLIC_METHOD"><ellipse cx="18" cy="125.8359" fill="#84BE84" rx="3" ry="3" style="stroke:#038048;stroke-width:1;"/></g><text fill="#000000" font-family="sans-serif" font-size="14" lengthAdjust="spacing" textLength="147.3828" x="27" y="129.1826">playGame(): boolean</text><g data-visibility-modifier="PRIVATE_METHOD"><rect fill="#F24D5C" height="6" style="stroke:#C82930;stroke-width:1;" width="6" x="15" y="139.1328"/></g><text fill="#000000" font-family="sans-serif" font-size="14" lengthAdjust="spacing" textLength="132.624" x="27" y="145.4795">assignRoles(): void</text><g data-visibility-modifier="PRIVATE_METHOD"><rect fill="#F24D5C" height="6" style="stroke:#C82930;stroke-width:1;" width="6" x="15" y="155.4297"/></g><text fill="#000000" font-family="sans-serif" font-size="14" lengthAdjust="spacing" textLength="173.1953" x="27" y="161.7764">getBestOutOfValue(): int</text><g data-visibility-modifier="PRIVATE_METHOD"><rect fill="#F24D5C" height="6" style="stroke:#C82930;stroke-width:1;" width="6" x="15" y="171.7266"/></g><text fill="#000000" font-family="sans-serif" font-size="14" lengthAdjust="spacing" textLength="307.9658" x="27" y="178.0732">calculateWinThreshold(bestOutOf: int): void</text><g data-visibility-modifier="PRIVATE_METHOD"><rect fill="#F24D5C" height="6" style="stroke:#C82930;stroke-width:1;" width="6" x="15" y="188.0234"/></g><text fill="#000000" font-family="sans-serif" font-size="14" lengthAdjust="spacing" textLength="161.1367" x="27" y="194.3701">getPlayerNumber(): int</text><g data-visibility-modifier="PRIVATE_METHOD"><rect fill="#F24D5C" height="6" style="stroke:#C82930;stroke-width:1;" width="6" x="15" y="204.3203"/></g><text fill="#000000" font-family="sans-serif" font-size="14" lengthAdjust="spacing" textLength="187.168" x="27" y="210.667">getComputerNumber(): int</text><g data-visibility-modifier="PRIVATE_METHOD"><rect fill="#F24D5C" height="6" style="stroke:#C82930;stroke-width:1;" width="6" x="15" y="220.6172"/></g><text fill="#000000" font-family="sans-serif" font-size="14" lengthAdjust="spacing" textLength="332.0762" x="27" y="226.9639">calculateSum(userNum: int, compNum: int): int</text><g data-visibility-modifier="PRIVATE_METHOD"><rect fill="#F24D5C" height="6" style="stroke:#C82930;stroke-width:1;" width="6" x="15" y="236.9141"/></g><text fill="#000000" font-family="sans-serif" font-size="14" lengthAdjust="spacing" textLength="274.0869" x="27" y="243.2607">determineRoundWinner(sum: int): void</text><g data-visibility-modifier="PRIVATE_METHOD"><rect fill="#F24D5C" height="6" style="stroke:#C82930;stroke-width:1;" width="6" x="15" y="253.2109"/></g><text fill="#000000" font-family="sans-serif" font-size="14" lengthAdjust="spacing" textLength="355.373" x="27" y="259.5576">updateRoundScore(userWonRound: boolean): void</text><g data-visibility-modifier="PRIVATE_METHOD"><rect fill="#F24D5C" height="6" style="stroke:#C82930;stroke-width:1;" width="6" x="15" y="269.5078"/></g><text fill="#000000" font-family="sans-serif" font-size="14" lengthAdjust="spacing" textLength="208.5781" x="27" y="275.8545">checkGameWinner(): boolean</text><g data-visibility-modifier="PRIVATE_METHOD"><rect fill="#F24D5C" height="6" style="stroke:#C82930;stroke-width:1;" width="6" x="15" y="285.8047"/></g><text fill="#000000" font-family="sans-serif" font-size="14" lengthAdjust="spacing" textLength="193.2793" x="27" y="292.1514">declareGameWinner(): void</text></g><?plantuml-src RL3BJiCm4Bpp5Ju6GN-WDq08SI6ehUZPyIwDXRsE_6Y54F_EUaLJ4o7vudbvFCRfbDJZ4UcEe0TGNrTAhLH96BScH5mhIraW4_oqW4wMTcF4D0O75xHwdrEDNAiX18UQ6ETpeoQdFv-qn-wwfLQAEzW3RHX8bJe62u8VCDzZodt9_VkRTaMCSo7jJ74wuxwfqGrdlGWNOQ_yFiQNuWUCRHHJ3_ozalyZvtUsnNVrSomHzbOsETyQ1o07UKku2OM0wn4dfejkhbGcu5nHoRGIlmyao3nHwp0ZceywuM_gOaX0utJ4lm8nV_y0?></g></svg>