<svg xmlns="http://www.w3.org/2000/svg" xmlns:xlink="http://www.w3.org/1999/xlink" contentStyleType="text/css" data-diagram-type="CLASS" height="263px" preserveAspectRatio="none" style="width:409px;height:263px;background:#FFFFFF;" version="1.1" viewBox="0 0 409 263" width="409px" zoomAndPan="magnify"><?plantuml 1.2026.3beta6?><defs/><g><!--class FindTheThimble--><g class="entity" data-qualified-name="FindTheThimble" data-source-line="1" id="ent0002"><rect fill="#F1F1F1" height="243.5625" rx="2.5" ry="2.5" style="stroke:#181818;stroke-width:0.5;" width="389.5078" x="7" y="7"/><ellipse cx="141.4629" cy="23" fill="#ADD1B2" rx="11" ry="11" style="stroke:#181818;stroke-width:1;"/><path d="M144.4316,28.6406 Q143.8535,28.9375 143.2129,29.0781 Q142.5723,29.2344 141.8691,29.2344 Q139.3691,29.2344 138.041,27.5938 Q136.7285,25.9375 136.7285,22.8125 Q136.7285,19.6875 138.041,18.0313 Q139.3691,16.375 141.8691,16.375 Q142.5723,16.375 143.2129,16.5313 Q143.8691,16.6875 144.4316,16.9844 L144.4316,19.7031 Q143.8066,19.125 143.2129,18.8594 Q142.6191,18.5781 141.9941,18.5781 Q140.6504,18.5781 139.9629,19.6563 Q139.2754,20.7188 139.2754,22.8125 Q139.2754,24.9063 139.9629,25.9844 Q140.6504,27.0469 141.9941,27.0469 Q142.6191,27.0469 143.2129,26.7813 Q143.8066,26.5 144.4316,25.9219 L144.4316,28.6406 Z " fill="#000000"/><text fill="#000000" font-family="sans-serif" font-size="14" lengthAdjust="spacing" textLength="112.082" x="161.9629" y="27.8467">FindTheThimble</text><line style="stroke:#181818;stroke-width:0.5;" x1="8" x2="395.5078" y1="39" y2="39"/><g data-visibility-modifier="PRIVATE_FIELD"><rect fill="none" height="6" style="stroke:#C82930;stroke-width:1;" width="6" x="15" y="49.6484"/></g><text fill="#000000" font-family="sans-serif" font-size="14" lengthAdjust="spacing" textLength="97.4736" x="27" y="55.9951">userScore: int</text><g data-visibility-modifier="PRIVATE_FIELD"><rect fill="none" height="6" style="stroke:#C82930;stroke-width:1;" width="6" x="15" y="65.9453"/></g><text fill="#000000" font-family="sans-serif" font-size="14" lengthAdjust="spacing" textLength="105.7246" x="27" y="72.292">compScore: int</text><g data-visibility-modifier="PRIVATE_FIELD"><rect fill="none" height="6" style="stroke:#C82930;stroke-width:1;" width="6" x="15" y="82.2422"/></g><text fill="#000000" font-family="sans-serif" font-size="14" lengthAdjust="spacing" textLength="120.9346" x="27" y="88.5889">winThreshold: int</text><line style="stroke:#181818;stroke-width:0.5;" x1="8" x2="395.5078" y1="95.8906" y2="95.8906"/><g data-visibility-modifier="PUBLIC_METHOD"><ellipse cx="18" cy="109.5391" fill="#84BE84" rx="3" ry="3" style="stroke:#038048;stroke-width:1;"/></g><text fill="#000000" font-family="sans-serif" font-size="14" lengthAdjust="spacing" textLength="147.3828" x="27" y="112.8857">playGame(): boolean</text><g data-visibility-modifier="PRIVATE_METHOD"><rect fill="#F24D5C" height="6" style="stroke:#C82930;stroke-width:1;" width="6" x="15" y="122.8359"/></g><text fill="#000000" font-family="sans-serif" font-size="14" lengthAdjust="spacing" textLength="173.1953" x="27" y="129.1826">getBestOutOfValue(): int</text><g data-visibility-modifier="PRIVATE_METHOD"><rect fill="#F24D5C" height="6" style="stroke:#C82930;stroke-width:1;" width="6" x="15" y="139.1328"/></g><text fill="#000000" font-family="sans-serif" font-size="14" lengthAdjust="spacing" textLength="307.9658" x="27" y="145.4795">calculateWinThreshold(bestOutOf: int): void</text><g data-visibility-modifier="PRIVATE_METHOD"><rect fill="#F24D5C" height="6" style="stroke:#C82930;stroke-width:1;" width="6" x="15" y="155.4297"/></g><text fill="#000000" font-family="sans-serif" font-size="14" lengthAdjust="spacing" textLength="137.6006" x="27" y="161.7764">hideThimble(): char</text><g data-visibility-modifier="PRIVATE_METHOD"><rect fill="#F24D5C" height="6" style="stroke:#C82930;stroke-width:1;" width="6" x="15" y="171.7266"/></g><text fill="#000000" font-family="sans-serif" font-size="14" lengthAdjust="spacing" textLength="160.4736" x="27" y="178.0732">getPlayerGuess(): char</text><g data-visibility-modifier="PRIVATE_METHOD"><rect fill="#F24D5C" height="6" style="stroke:#C82930;stroke-width:1;" width="6" x="15" y="188.0234"/></g><text fill="#000000" font-family="sans-serif" font-size="14" lengthAdjust="spacing" textLength="363.5078" x="27" y="194.3701">checkRoundWinner(guess: char, hidden: char): void</text><g data-visibility-modifier="PRIVATE_METHOD"><rect fill="#F24D5C" height="6" style="stroke:#C82930;stroke-width:1;" width="6" x="15" y="204.3203"/></g><text fill="#000000" font-family="sans-serif" font-size="14" lengthAdjust="spacing" textLength="355.373" x="27" y="210.667">updateRoundScore(userWonRound: boolean): void</text><g data-visibility-modifier="PRIVATE_METHOD"><rect fill="#F24D5C" height="6" style="stroke:#C82930;stroke-width:1;" width="6" x="15" y="220.6172"/></g><text fill="#000000" font-family="sans-serif" font-size="14" lengthAdjust="spacing" textLength="208.5781" x="27" y="226.9639">checkGameWinner(): boolean</text><g data-visibility-modifier="PRIVATE_METHOD"><rect fill="#F24D5C" height="6" style="stroke:#C82930;stroke-width:1;" width="6" x="15" y="236.9141"/></g><text fill="#000000" font-family="sans-serif" font-size="14" lengthAdjust="spacing" textLength="193.2793" x="27" y="243.2607">declareGameWinner(): void</text></g><?plantuml-src NP2zRW8n48JxF8NBGoGlG9a2IgBa5EezUuAjxDad_oH2KTuTU-7GWUJ6uszsrgEPKb9RvqrlqLit3WprzwJKYoe9yKE7Y8roFekampWzIB_EzpOYsS1cLkjPgudfjACHtMgZXX0OvCLmH7v5olkIzr-Vn4M0Mm2nBamPXyNORfXv0Il-4vmHtZepRzt6Q4jn3dch-OYxWfJkdhI5_duFnPkQuH6xOqCkm7CRQE0ljsLGcKpTIcnIGDVQEGGloks3IuVaj0AkCGyr66YcY7j0pFzd?></g></svg>