<svg xmlns="http://www.w3.org/2000/svg" xmlns:xlink="http://www.w3.org/1999/xlink" contentStyleType="text/css" data-diagram-type="CLASS" height="149px" preserveAspectRatio="none" style="width:537px;height:149px;background:#FFFFFF;" version="1.1" viewBox="0 0 537 149" width="537px" zoomAndPan="magnify"><?plantuml 1.2026.3beta6?><defs/><g><!--class GetInput--><g class="entity" data-qualified-name="GetInput" data-source-line="1" id="ent0002"><rect fill="#F1F1F1" height="129.4844" rx="2.5" ry="2.5" style="stroke:#181818;stroke-width:0.5;" width="517.7705" x="7" y="7"/><ellipse cx="231.0342" cy="23" fill="#ADD1B2" rx="11" ry="11" style="stroke:#181818;stroke-width:1;"/><path d="M234.0029,28.6406 Q233.4248,28.9375 232.7842,29.0781 Q232.1436,29.2344 231.4404,29.2344 Q228.9404,29.2344 227.6123,27.5938 Q226.2998,25.9375 226.2998,22.8125 Q226.2998,19.6875 227.6123,18.0313 Q228.9404,16.375 231.4404,16.375 Q232.1436,16.375 232.7842,16.5313 Q233.4404,16.6875 234.0029,16.9844 L234.0029,19.7031 Q233.3779,19.125 232.7842,18.8594 Q232.1904,18.5781 231.5654,18.5781 Q230.2217,18.5781 229.5342,19.6563 Q228.8467,20.7188 228.8467,22.8125 Q228.8467,24.9063 229.5342,25.9844 Q230.2217,27.0469 231.5654,27.0469 Q232.1904,27.0469 232.7842,26.7813 Q233.3779,26.5 234.0029,25.9219 L234.0029,28.6406 Z " fill="#000000"/><text fill="#000000" font-family="sans-serif" font-size="14" lengthAdjust="spacing" textLength="61.2021" x="251.5342" y="27.8467">GetInput</text><line style="stroke:#181818;stroke-width:0.5;" x1="8" x2="523.7705" y1="39" y2="39"/><g data-visibility-modifier="PRIVATE_FIELD"><rect fill="none" height="6" style="stroke:#C82930;stroke-width:1;" width="6" x="15" y="49.6484"/></g><text fill="#000000" font-family="sans-serif" font-size="14" lengthAdjust="spacing" textLength="122.1309" x="27" y="55.9951">scanner: Scanner</text><line style="stroke:#181818;stroke-width:0.5;" x1="8" x2="523.7705" y1="63.2969" y2="63.2969"/><g data-visibility-modifier="PUBLIC_METHOD"><ellipse cx="18" cy="76.9453" fill="#84BE84" rx="3" ry="3" style="stroke:#038048;stroke-width:1;"/></g><text fill="#000000" font-family="sans-serif" font-size="14" lengthAdjust="spacing" textLength="181.9932" x="27" y="80.292">getInt(prompt: String): int</text><g data-visibility-modifier="PUBLIC_METHOD"><ellipse cx="18" cy="93.2422" fill="#84BE84" rx="3" ry="3" style="stroke:#038048;stroke-width:1;"/></g><text fill="#000000" font-family="sans-serif" font-size="14" lengthAdjust="spacing" textLength="491.7705" x="27" y="96.5889">getIntInRange(prompt: String, min: int, max: int, errorMsg: String): int</text><g data-visibility-modifier="PUBLIC_METHOD"><ellipse cx="18" cy="109.5391" fill="#84BE84" rx="3" ry="3" style="stroke:#038048;stroke-width:1;"/></g><text fill="#000000" font-family="sans-serif" font-size="14" lengthAdjust="spacing" textLength="333.3408" x="27" y="112.8857">getOddInt(prompt: String, errorMsg: String): int</text><g data-visibility-modifier="PUBLIC_METHOD"><ellipse cx="18" cy="125.8359" fill="#84BE84" rx="3" ry="3" style="stroke:#038048;stroke-width:1;"/></g><text fill="#000000" font-family="sans-serif" font-size="14" lengthAdjust="spacing" textLength="465.3975" x="27" y="129.1826">getChar(prompt: String, validChars: char[], errorMsg: String): char</text></g><?plantuml-src Iyv9B2vMS4yjySmhA2rHgEPIKD1LA4vEpCjBBR9I28OmW890fAsG3b9Meb5Gb9zRK0AKBIdAp4lNj5B8p2j1alVC2qhCIqz5KwQZa9kP1rOAP2LMG5cfHKNvHRx5wTWDyqz9mRIFa2RdZCGY32rbYJcPAI2POYk5P20L7OlL690KLoq0?></g></svg>