<svg xmlns="http://www.w3.org/2000/svg" xmlns:xlink="http://www.w3.org/1999/xlink" contentStyleType="text/css" data-diagram-type="CLASS" height="247px" preserveAspectRatio="none" style="width:364px;height:247px;background:#FFFFFF;" version="1.1" viewBox="0 0 364 247" width="364px" zoomAndPan="magnify"><?plantuml 1.2026.3beta6?><defs/><g><!--class GuessTheNumber--><g class="entity" data-qualified-name="GuessTheNumber" data-source-line="1" id="ent0002"><rect fill="#F1F1F1" height="227.2656" rx="2.5" ry="2.5" style="stroke:#181818;stroke-width:0.5;" width="344.541" x="7" y="7"/><ellipse cx="112.4204" cy="23" fill="#ADD1B2" rx="11" ry="11" style="stroke:#181818;stroke-width:1;"/><path d="M115.3892,28.6406 Q114.811,28.9375 114.1704,29.0781 Q113.5298,29.2344 112.8267,29.2344 Q110.3267,29.2344 108.9985,27.5938 Q107.686,25.9375 107.686,22.8125 Q107.686,19.6875 108.9985,18.0313 Q110.3267,16.375 112.8267,16.375 Q113.5298,16.375 114.1704,16.5313 Q114.8267,16.6875 115.3892,16.9844 L115.3892,19.7031 Q114.7642,19.125 114.1704,18.8594 Q113.5767,18.5781 112.9517,18.5781 Q111.6079,18.5781 110.9204,19.6563 Q110.2329,20.7188 110.2329,22.8125 Q110.2329,24.9063 110.9204,25.9844 Q111.6079,27.0469 112.9517,27.0469 Q113.5767,27.0469 114.1704,26.7813 Q114.7642,26.5 115.3892,25.9219 L115.3892,28.6406 Z " fill="#000000"/><text fill="#000000" font-family="sans-serif" font-size="14" lengthAdjust="spacing" textLength="125.2002" x="132.9204" y="27.8467">GuessTheNumber</text><line style="stroke:#181818;stroke-width:0.5;" x1="8" x2="350.541" y1="39" y2="39"/><g data-visibility-modifier="PRIVATE_FIELD"><rect fill="none" height="6" style="stroke:#C82930;stroke-width:1;" width="6" x="15" y="49.6484"/></g><text fill="#000000" font-family="sans-serif" font-size="14" lengthAdjust="spacing" textLength="126.4717" x="27" y="55.9951">targetNumber: int</text><g data-visibility-modifier="PRIVATE_FIELD"><rect fill="none" height="6" style="stroke:#C82930;stroke-width:1;" width="6" x="15" y="65.9453"/></g><text fill="#000000" font-family="sans-serif" font-size="14" lengthAdjust="spacing" textLength="116.751" x="27" y="72.292">maxGuesses: int</text><g data-visibility-modifier="PRIVATE_FIELD"><rect fill="none" height="6" style="stroke:#C82930;stroke-width:1;" width="6" x="15" y="82.2422"/></g><text fill="#000000" font-family="sans-serif" font-size="14" lengthAdjust="spacing" textLength="164.1377" x="27" y="88.5889">currentGuessesLeft: int</text><g data-visibility-modifier="PRIVATE_FIELD"><rect fill="none" height="6" style="stroke:#C82930;stroke-width:1;" width="6" x="15" y="98.5391"/></g><text fill="#000000" font-family="sans-serif" font-size="14" lengthAdjust="spacing" textLength="126.7383" x="27" y="104.8857">numberRange: int</text><line style="stroke:#181818;stroke-width:0.5;" x1="8" x2="350.541" y1="112.1875" y2="112.1875"/><g data-visibility-modifier="PUBLIC_METHOD"><ellipse cx="18" cy="125.8359" fill="#84BE84" rx="3" ry="3" style="stroke:#038048;stroke-width:1;"/></g><text fill="#000000" font-family="sans-serif" font-size="14" lengthAdjust="spacing" textLength="147.3828" x="27" y="129.1826">playGame(): boolean</text><g data-visibility-modifier="PRIVATE_METHOD"><rect fill="#F24D5C" height="6" style="stroke:#C82930;stroke-width:1;" width="6" x="15" y="139.1328"/></g><text fill="#000000" font-family="sans-serif" font-size="14" lengthAdjust="spacing" textLength="106.0117" x="27" y="145.4795">getRange(): int</text><g data-visibility-modifier="PRIVATE_METHOD"><rect fill="#F24D5C" height="6" style="stroke:#C82930;stroke-width:1;" width="6" x="15" y="155.4297"/></g><text fill="#000000" font-family="sans-serif" font-size="14" lengthAdjust="spacing" textLength="217.2324" x="27" y="161.7764">getMaxGuesses(range: int): int</text><g data-visibility-modifier="PRIVATE_METHOD"><rect fill="#F24D5C" height="6" style="stroke:#C82930;stroke-width:1;" width="6" x="15" y="171.7266"/></g><text fill="#000000" font-family="sans-serif" font-size="14" lengthAdjust="spacing" textLength="283.3838" x="27" y="178.0732">generateTargetNumber(range: int): void</text><g data-visibility-modifier="PRIVATE_METHOD"><rect fill="#F24D5C" height="6" style="stroke:#C82930;stroke-width:1;" width="6" x="15" y="188.0234"/></g><text fill="#000000" font-family="sans-serif" font-size="14" lengthAdjust="spacing" textLength="147.8203" x="27" y="194.3701">getPlayerGuess(): int</text><g data-visibility-modifier="PRIVATE_METHOD"><rect fill="#F24D5C" height="6" style="stroke:#C82930;stroke-width:1;" width="6" x="15" y="204.3203"/></g><text fill="#000000" font-family="sans-serif" font-size="14" lengthAdjust="spacing" textLength="248.2881" x="27" y="210.667">evaluateGuess(guess: int): boolean</text><g data-visibility-modifier="PRIVATE_METHOD"><rect fill="#F24D5C" height="6" style="stroke:#C82930;stroke-width:1;" width="6" x="15" y="220.6172"/></g><text fill="#000000" font-family="sans-serif" font-size="14" lengthAdjust="spacing" textLength="318.541" x="27" y="226.9639">declareRoundResult(isCorrect: boolean): void</text></g><?plantuml-src LP1D2i8m48NtdYBBYdY1RbrqeoAb5vYcprf84qacHH7lRfgQ_a38ufilxmsHYfmJXOTprGDNtzUmuhCJuYYOR0kUK2uwpP7sz8estCAajnQQ__oCEoyp7T-Nf5ia6Cv1F1Mz2-gHxNDH6wD0ElgXCieZJnc1NURQpCvP6qN34gDQBRqr1zCrAUqMoc5ZuBe70oaVGgP1EzxfzNh51bAHHMcyRaeuhpZhtCc4Fv0ycwdn-mC0?></g></svg>